<?xml version="1.0" encoding="UTF-8" standalone="no"?>
<!DOCTYPE svg PUBLIC "-//W3C//DTD SVG 1.1//EN" "http://www.w3.org/Graphics/SVG/1.1/DTD/svg11.dtd">
<svg width="100%" height="100%" viewBox="0 0 576 282" version="1.1" xmlns="http://www.w3.org/2000/svg" xmlns:xlink="http://www.w3.org/1999/xlink" xml:space="preserve" xmlns:serif="http://www.serif.com/" style="fill-rule:evenodd;clip-rule:evenodd;stroke-linejoin:round;stroke-miterlimit:2;">
<g id="star">
<circle id="starcenter" cx="433.273" cy="114.587" r="7.346" style="fill:var(--light);"/>
<path id="starpoints" d="M381.468,5.519l59.152,51.571l-18.248,33.939l-37.995,-7.317l-2.909,-78.192Zm143.339,63.295l0.617,0.088l-36.76,41.521l-35.174,-7.141l16.661,-31.824l54.656,-2.644Zm-147.924,47.075l35.35,7.141l-16.837,31.824l-55.185,2.645l-0.088,-0.264l36.76,-41.344l0,-0.002Zm66.469,19.395l37.995,7.316l2.997,78.105l-0.264,0.088l-58.975,-51.57l18.248,-33.939Z" style="fill:url(#_Radial1);"/>
</g>
<path id="logotext" d="M17.206,20.15l1.028,0.617l6.168,10.692l0,3.701l-0.822,7.402l0,24.262l-0.411,0.822l0.411,1.645l0.411,1.234l0.411,11.514l-0.411,0.411l0,39.478l-0.411,0.411l0.411,1.234c-1.253,19.309 -1.527,39.596 -0.822,60.862l-0.822,10.692l0.411,15.215l-0.822,6.991l0,26.319l0.411,0.411l0,19.739c-3.77,1.165 -8.362,1.508 -13.776,1.028l-0.617,-19.945l0,-0.822l0.411,-2.467l-0.411,-1.645l0,-0.822l0.411,-24.674l0,-0.822l0.411,-17.683l-0.411,-5.346c1.25,-16.296 1.524,-33.567 0.822,-51.815l0.822,-13.571l0,-45.646l-0.411,-3.29c0.822,-0.548 1.097,-1.645 0.822,-3.29l-0.822,-5.346l0,-23.44l0.822,-12.748l6.785,-11.309Zm10.281,0.411l87.18,1.234l9.458,-0.411l0.411,0.411l20.973,0l0.617,0.617c10.914,20.751 22.428,40.901 34.543,60.451c-11.328,24.312 -24.007,47.272 -38.039,68.881l-25.907,-0.822l-0.206,0.617l17.272,30.842l-0.411,0.822l1.234,0.411l18.505,32.076l2.879,6.58l15.832,28.169l1.028,0.617l6.991,11.514l-24.879,0.617l-3.907,-0.617l6.58,-10.692l0,-2.056l-10.692,-20.15l-10.692,-16.86l-10.692,-20.15l-6.58,-10.281l-13.982,-26.319l-4.318,-5.963l-2.056,0.822l-0.822,0l-25.496,-0.411l-0.411,0.411l-18.505,0l-1.234,-0.411l-5.552,0.617l-0.822,17.683l0.411,7.813l-1.234,6.168l-0.411,46.058l0.411,5.346l-0.411,0.411l0,16.86l7.402,11.926l-21.178,0.617l-0.206,-68.881l0.822,-12.337l0,-0.822l0.411,-2.467l-0.411,-2.879l0.411,-0.411l0,-15.627l0.822,-5.757l0,-20.15l-0.822,-14.393l0.822,-8.636l0.822,-28.375l0.822,-3.701l-0.411,-11.514l0,-0.822l-0.411,-25.496l0.411,-9.458l-6.374,-11.72l0.002,-0.002Zm22.412,12.748l-0.822,0.822l2.467,6.168l9.047,13.571l2.467,6.168l20.561,34.543l4.524,9.869l0.822,0.411l-0.411,0.822l0.822,0l7.813,12.337l10.281,19.328l1.234,0.822l27.964,0l29.197,-53.46l-0.411,-3.29l-12.337,-19.739l-14.393,-26.73l-11.103,-0.822l-61.684,0l-16.038,-0.822l-0,0.002Zm387.993,98.284l1.029,0.617l0.411,12.748l-0.411,0.411l0,41.123l-0.411,1.645l0.411,2.056l-0.411,0.822l0,12.337l2.467,4.935l-15.832,0.206l-1.028,-1.028l0,-6.991l0.822,-2.467l-0.411,-0.411l0,-44.413l0.411,-8.225l10.486,-11.309l2.467,-2.056Zm-253.725,3.291l22.204,0.41l4.524,0.822l2.467,-0.411c2.056,2.33 3.564,5.209 4.524,8.636l0.617,0.206l4.935,8.225l-4.729,0.206l-6.168,-7.402l-26.73,0.822l-5.757,-0.411l-1.851,26.524l0,9.458l0.617,13.365l32.898,0l1.439,1.439l6.58,10.692l-0.617,0.617l-18.505,0.411l-28.375,-0.822l-0.822,0.411l-13.776,-0.617l2.673,-4.729c2.056,0.548 3.358,0.343 3.907,-0.617l0.411,-4.112l-0.411,-2.467l0.411,-1.234l-0.822,-19.739l1.234,-17.272l-0.411,-0.822l0,-8.636l6.785,-12.542l12.748,-0.411Zm204.789,-0.001l4.112,0.411l1.234,-0.411l2.056,0.411l12.337,-0.411l8.019,11.72l0,6.168c-0.548,0.96 -1.097,0.822 -1.645,-0.411l-3.084,-4.318l-11.514,-0.411l-0.411,0.411l-18.094,0l-4.729,0.617l-13.982,23.44l0,1.234l12.954,22.823l6.168,0.411l0.411,-0.411l20.561,0l1.028,-0.617l0,-13.159l-4.729,-8.019l-6.374,-0.206l-2.467,-4.524l28.992,-0.206l0.206,0.617l-2.467,4.112l0,9.869l0.822,9.458l-0.411,3.29l-6.374,10.898l-1.234,0.822l-4.112,0.411l-1.234,-0.411l-4.524,0.411l-0.822,-0.411c-1.966,0.913 -4.57,1.187 -7.813,0.822l-13.159,-0.411l-4.524,0.411l-4.935,-0.411l-1.028,-1.028l-3.084,-5.14l-0.617,-0.206c-3.405,-7.698 -7.38,-14.826 -11.926,-21.384l-3.701,-8.636l0.411,-0.822l-0.411,-1.234l20.356,-34.338l19.739,-1.234l-0.001,0.003Zm111.854,0.001l4.113,-0.001l0.617,0.617l6.168,10.281l0,7.402l-0.617,0.206l-4.112,-5.346l-29.197,0l-6.58,0.411l-1.439,1.439l-13.571,23.029l13.365,23.646l36.188,-0.411l0.617,-0.617l3.907,-5.552l0.617,0.206l0,6.168l-7.196,12.131l-20.15,0.411l-13.571,-0.822l-7.813,0.411l-4.729,-6.374c-3.358,-7.745 -7.334,-14.873 -11.926,-21.384l-3.701,-7.402l0,-1.645l20.767,-35.571l4.112,-0.411l0.822,0l32.898,-0.411l0.411,-0.411Zm-279.224,0.821l20.15,0l1.439,1.439l11.309,15.421l11.514,-15.627l2.056,-1.234l15.215,0l1.028,0.617l-2.673,4.318l-1.851,0.206l-0.411,12.748l0.411,12.748c-0.877,6.662 -1.151,13.927 -0.822,21.795l0.822,14.393l0.617,0.617l1.234,-0.411l3.084,5.14l-1.439,0.617l-11.514,0l-5.346,-0.411l-1.439,-1.028c0.822,-0.548 1.097,-1.645 0.822,-3.29l-0.411,-1.645l0.411,-1.234c-1.05,-7.037 -1.461,-14.714 -1.234,-23.029l1.234,-17.683l-0.822,0.411l-11.309,15.421l-1.028,-0.206l-8.019,-14.187l-0.617,-0.206l-2.262,-3.495l-0.206,1.028l0.822,24.262l-0.411,1.234l-0.411,10.692l0.411,7.813l-0.411,2.056l0.411,2.056l-0.617,0.617l-17.683,0.411l-0.206,-1.028l2.262,-3.907l1.851,-0.206l-0.411,-12.337c0.984,-5.047 1.258,-10.804 0.822,-17.272l-0.822,-25.085l-0.411,-4.935l-1.028,-2.673l-2.262,-0.206l-2.467,-4.112l0.617,-0.617l0.001,0.004Zm79.778,0l24.674,0l24.468,1.028l-3.907,5.14l-1.851,0.617l-0.411,31.665l1.028,28.58l2.673,1.028l2.467,4.112l-5.14,0.206l-1.645,-0.411l-13.571,0.411l-0.206,-1.028l0.822,-1.234l0,-14.393l-0.411,-6.168l0.411,-3.29c-0.886,-7.065 -1.16,-14.741 -0.822,-23.029l0.411,-1.645l-0.411,-0.822l0,-0.822l0.411,-5.757l-0.617,-0.617l-6.991,0c-1.195,-0.861 -2.977,-1.135 -5.346,-0.822l-4.935,0.411l-2.879,-0.411l-1.439,33.515l0.822,11.103l-0.411,6.991l0.411,7.402l-0.617,0.617l-17.683,0l-0.206,-1.028l2.262,-3.495l1.851,-0.617l-0.411,-32.076l0.822,-10.692l-0.411,-11.926l0.411,-2.056l6.374,-10.486l0.003,-0.001Zm223.708,0.411l24.262,0l24.468,1.028l-3.084,4.729l-2.262,0.617l-0.822,12.748l0.411,4.524l-0.411,11.514l0.822,14.804l-0.411,4.112l0.617,12.954c1.689,-0.181 2.717,0.299 3.084,1.439l2.056,3.701l-19.945,0.206l-0.206,-1.028l0.822,-11.103l-1.234,-34.543l0.411,-1.234l0,-10.281l-0.617,-0.617l-6.991,0c-1.097,-0.822 -2.742,-1.097 -4.935,-0.822l-4.935,0.411l-3.29,-0.411l-1.439,31.87l0.822,4.935l0,22.206l-0.617,0.617l-17.683,0l-0.206,-0.617l2.262,-3.907l1.851,-0.617l-0.411,-30.02l0.822,-3.29l-0.411,-5.346l0.411,-9.047l-0.411,-4.935l0.411,-0.822l0,-0.822l0.411,-2.879l6.374,-10.075l0.004,0.001Zm-430.967,17.682l5.346,0.001l0.617,0.617l15.215,29.608l19.739,32.898c5.53,11.742 11.698,22.845 18.505,33.309l-2.262,3.907l-1.028,-0.206l-7.402,-11.514l-10.692,-20.973l-20.973,-34.954l-17.066,-32.692Zm101.162,6.581l1.439,0.617l6.168,11.514l-7.196,11.72l-7.196,-12.542l6.785,-11.309Zm123.369,0.411l1.028,0.206l6.58,11.514l-6.785,11.72l-1.439,-0.617l-6.168,-11.514l6.785,-11.309Zm224.531,0.411l1.028,0.617l5.757,9.869l0.411,2.056l-6.785,11.309l-1.439,-1.028l-5.757,-9.869l0,-1.645l6.785,-11.309Z" style="fill:var(--dark);fill-opacity:1;"/>
<defs>
<radialGradient id="_Radial1" cx="0" cy="0" r="1" gradientUnits="userSpaceOnUse" gradientTransform="matrix(51.478644,107.636571,-107.636571,51.478644,432.865106,113.156571)">
<stop class="lightfill" offset="0" style="stop-color:var(--light);stop-opacity:0"/>
<stop class="lightfill" offset="0.57" style="stop-color:var(--light);stop-opacity:0.69"/>
<stop class="lightfill" offset="1" style="stop-color:var(--light);stop-opacity:1"/>
</radialGradient>
</defs>
</svg>
